<svg width="1228" height="1009" viewBox="0 0 1228 1009" fill="none" xmlns="http://www.w3.org/2000/svg">
<path d="M196.5 3H3.5V945L161 1005L331 370L285 355L295 320.5H958.5L1221 3H437L273 22.5H196.5V3Z" fill="#F9F9FF" stroke="#ECEEFE" stroke-width="6"/>
<path d="M459.736 38.9628L375.236 70.0723C372.09 71.2305 370 74.2273 370 77.5797V133C370 137.418 373.582 141 378 141H462.5C466.918 141 470.5 137.418 470.5 133V46.4702C470.5 40.905 464.959 37.0401 459.736 38.9628Z" fill="#EBE9F7" stroke="#C4C6DF" stroke-width="2"/>
<path d="M560 35H478.5C474.082 35 470.5 38.5817 470.5 43V133C470.5 137.418 474.082 141 478.5 141H560C564.418 141 568 137.418 568 133V43C568 38.5817 564.418 35 560 35Z" fill="#EBE9F7" stroke="#C4C6DF" stroke-width="2"/>
<path d="M568 43V133C568 137.418 571.582 141 576 141H656.5C660.918 141 664.5 137.418 664.5 133V43C664.5 38.5817 660.918 35 656.5 35H576C571.582 35 568 38.5817 568 43Z" fill="#EBE9F7" stroke="#C4C6DF" stroke-width="2"/>
<path d="M761.5 43V133C761.5 137.418 765.082 141 769.5 141H850C854.418 141 858 137.418 858 133V43C858 38.5817 854.418 35 850 35H769.5C765.082 35 761.5 38.5817 761.5 43Z" fill="#EBE9F7" stroke="#C4C6DF" stroke-width="2"/>
<path d="M915 172.5V280.5C915 284.918 911.418 288.5 907 288.5H846.5C842.082 288.5 838.5 284.918 838.5 280.5V172.5C838.5 168.082 842.082 164.5 846.5 164.5H907C911.418 164.5 915 168.082 915 172.5Z" fill="#EBE9F7" stroke="#C4C6DF" stroke-width="2"/>
<path d="M838.5 149V280.5C838.5 284.918 834.918 288.5 830.5 288.5H730.5C726.082 288.5 722.5 284.918 722.5 280.5V149C722.5 144.582 726.082 141 730.5 141H830.5C834.918 141 838.5 144.582 838.5 149Z" fill="#EBE9F7" stroke="#C4C6DF" stroke-width="2"/>
<path d="M722.5 149V280.5C722.5 284.918 718.918 288.5 714.5 288.5H621C616.582 288.5 613 284.918 613 280.5V149C613 144.582 616.582 141 621 141H714.5C718.918 141 722.5 144.582 722.5 149Z" fill="#EBE9F7" stroke="#C4C6DF" stroke-width="2"/>
<path d="M613 149V280.5C613 284.918 609.418 288.5 605 288.5H509.5C505.082 288.5 501.5 284.918 501.5 280.5V149C501.5 144.582 505.082 141 509.5 141H605C609.418 141 613 144.582 613 149Z" fill="#EBE9F7" stroke="#C4C6DF" stroke-width="2"/>
<path d="M501.5 149V280.5C501.5 284.918 497.918 288.5 493.5 288.5H351.5C347.082 288.5 343.5 284.918 343.5 280.5V149C343.5 144.582 347.082 141 351.5 141H493.5C497.918 141 501.5 144.582 501.5 149Z" fill="#EBE9F7" stroke="#C4C6DF" stroke-width="2"/>
<path d="M343.5 149V277.873C343.5 283.195 338.401 287.033 333.288 285.561L279.788 270.165C276.36 269.179 274 266.044 274 262.478V149C274 144.582 277.582 141 282 141H335.5C339.918 141 343.5 144.582 343.5 149Z" fill="#EBE9F7" stroke="#C4C6DF" stroke-width="2"/>
<path d="M664.5 43V133C664.5 137.418 668.082 141 672.5 141H753.5C757.918 141 761.5 137.418 761.5 133V43C761.5 38.5817 757.918 35 753.5 35H672.5C668.082 35 664.5 38.5817 664.5 43Z" fill="#FFD3EE" stroke="#E2718C" stroke-width="2"/>
<path d="M955.733 322.5H955.486C951.073 322.5 947.494 318.927 947.486 314.514L947.014 51.5143C947.006 47.0905 950.59 43.5 955.014 43.5H1020.5C1024.92 43.5 1028.5 39.9183 1028.5 35.5V32C1028.5 27.5817 1032.08 24 1036.5 24H1055.5C1059.92 24 1063.5 20.4183 1063.5 16V9C1063.5 4.58172 1067.08 1 1071.5 1H1208.23C1215 1 1218.71 8.88011 1214.4 14.0966L961.9 319.597C960.38 321.435 958.119 322.5 955.733 322.5Z" fill="#EBE9F7" stroke="#C4C6DF" stroke-width="2"/>
<path d="M9.51044 86H164C168.418 86 172 89.5817 172 94V279C172 283.418 168.418 287 164 287H9.5105C5.09222 287 1.5105 283.418 1.5105 279L1.51045 94C1.51045 89.5817 5.09216 86 9.51044 86Z" fill="#EBE9F7" stroke="#C4C6DF" stroke-width="2"/>
<path d="M204.378 497.458L221.326 434.21C222.473 429.928 226.884 427.395 231.16 428.563L303.822 448.404C308.069 449.563 310.581 453.936 309.443 458.189L292.573 521.252C291.429 525.528 287.03 528.062 282.757 526.908L210.019 507.251C205.76 506.1 203.237 501.719 204.378 497.458Z" fill="#EBE9F7" stroke="#C4C6DF" stroke-width="2"/>
<path d="M210.052 507.26L282.799 526.919C287.056 528.069 289.579 532.447 288.441 536.707L273.106 594.115C271.95 598.444 267.464 600.979 263.159 599.737L190.7 578.823C186.512 577.615 184.063 573.277 185.191 569.067L200.237 512.913C201.383 508.638 205.78 506.106 210.052 507.26Z" fill="#EBE9F7" stroke="#C4C6DF" stroke-width="2"/>
<path d="M188.389 647.929L173.417 643.918C169.149 642.774 164.762 645.307 163.619 649.574L154.933 681.992C153.795 686.237 156.294 690.604 160.53 691.774L233.23 711.854C237.511 713.036 241.937 710.504 243.087 706.213L259.412 645.292C260.562 640.999 257.993 636.591 253.691 635.477L211.173 624.461C206.921 623.359 202.576 625.892 201.439 630.135L198.187 642.272C197.043 646.54 192.656 649.073 188.389 647.929Z" fill="#EBE9F7" stroke="#C4C6DF" stroke-width="2"/>
<path d="M142.4 580.012L164.747 496.613C166.111 491.522 162.265 486.526 156.995 486.542L114.331 486.671C109.909 486.684 106.337 490.282 106.355 494.703L106.688 577.78C106.706 582.155 110.235 585.705 114.61 585.747L134.595 585.941C138.244 585.976 141.455 583.537 142.4 580.012Z" fill="#EBE9F7" stroke="#C4C6DF" stroke-width="2"/>
<path d="M254.537 342.633L326.301 366.142C330.339 367.464 332.638 371.713 331.537 375.817L313.582 442.739C312.434 447.02 308.024 449.551 303.748 448.383L231.081 428.541C226.836 427.382 224.324 423.011 225.46 418.759L244.317 348.17C245.503 343.733 250.172 341.203 254.537 342.633Z" fill="#EBE9F7" stroke="#C4C6DF" stroke-width="2"/>
<path d="M274 88H321V140H274V88Z" fill="#D6C7FF"/>
<path d="M283 95C283 91.134 286.134 88 290 88H323C326.866 88 330 91.134 330 95V133C330 136.866 326.866 140 323 140H290C286.134 140 283 136.866 283 133V95Z" fill="#D6C7FF"/>
<path d="M274 141H322C326.418 141 330 137.418 330 133V96C330 91.5817 326.418 88 322 88H274M274 115H307.5" stroke="#A28EDC" stroke-width="2"/>
<path d="M180 357H200L174 459H154L180 357Z" fill="#D6C7FF"/>
<path d="M173.5 459L200 357M181 357L153 459" stroke="#A28EDC" stroke-width="2"/>
<path d="M868 88H915V136H868V88Z" fill="#D6C7FF"/>
<path d="M860 97C860 92.0294 864.029 88 869 88H898C902.971 88 907 92.0294 907 97V127C907 131.971 902.971 136 898 136H869C864.029 136 860 131.971 860 127V97Z" fill="#D6C7FF"/>
<path d="M915 136.5H868C863.582 136.5 860 132.918 860 128.5V96.5C860 92.0817 863.582 88.5 868 88.5H915M915 112.5H880.5" stroke="#A28EDC" stroke-width="2"/>
<path d="M88 303.5L85 476H145" stroke="#E4E0FB" stroke-width="3"/>
<path d="M145 476H190L186 490" stroke="#E4E0FB" stroke-width="3"/>
<path d="M186 490L178.5 517" stroke="#E4E0FB" stroke-width="3"/>
<path d="M145 476H190L207.5 412" stroke="#E4E0FB" stroke-width="3"/>
<path d="M186 490L207.5 412" stroke="#E4E0FB" stroke-width="3"/>
<path d="M193 348H225.227L230 331" stroke="#E4E0FB" stroke-width="3"/>
<path d="M193 348H225.332L207.5 412" stroke="#E4E0FB" stroke-width="3"/>
<path d="M230 331L207.5 412" stroke="#E4E0FB" stroke-width="3"/>
<path d="M88 303.5H237.5L230 331" stroke="#E4E0FB" stroke-width="3"/>
<path d="M88 303.5H237.5V101.5H263" stroke="#E4E0FB" stroke-width="3"/>
<path d="M88 303.5H237.5V80" stroke="#E4E0FB" stroke-width="3"/>
<path d="M88 303.5H325" stroke="#E4E0FB" stroke-width="3"/>
<path d="M230 331L237.5 303.5V101.5H262.5" stroke="#E4E0FB" stroke-width="3"/>
<path d="M230 331L237.5 303.5V79.5" stroke="#E4E0FB" stroke-width="3"/>
<path d="M230 331L237.5 303.5H325" stroke="#E4E0FB" stroke-width="3"/>
<path d="M325 303.5H237.5V101.5H263" stroke="#E4E0FB" stroke-width="3"/>
<path d="M325 303.5H237.5V79.5" stroke="#E4E0FB" stroke-width="3"/>
<path d="M263 101.5H237.5V80.5" stroke="#E4E0FB" stroke-width="3"/>
<path d="M325 303.5H364.5" stroke="#E4E0FB" stroke-width="3"/>
<path d="M364.5 303.5H479" stroke="#E4E0FB" stroke-width="3"/>
<path d="M479 303.5H524" stroke="#E4E0FB" stroke-width="3"/>
<path d="M524 303.5H601" stroke="#E4E0FB" stroke-width="3"/>
<path d="M601 303.5H627" stroke="#E4E0FB" stroke-width="3"/>
<path d="M627 303.5H709" stroke="#E4E0FB" stroke-width="3"/>
<path d="M709 303.5H745" stroke="#E4E0FB" stroke-width="3"/>
<path d="M745 303.5H825" stroke="#E4E0FB" stroke-width="3"/>
<path d="M825 303.5H902" stroke="#E4E0FB" stroke-width="3"/>
<path d="M902 303.5H930.5V207" stroke="#E4E0FB" stroke-width="3"/>
<path d="M930.5 207V124" stroke="#E4E0FB" stroke-width="3"/>
<path d="M930.5 124V20H774" stroke="#E4E0FB" stroke-width="3"/>
<path d="M774 20H675" stroke="#E4E0FB" stroke-width="3"/>
<path d="M675 20H576" stroke="#E4E0FB" stroke-width="3"/>
<path d="M576 20H479" stroke="#E4E0FB" stroke-width="3"/>
<path d="M479 20H460.5L414 32.5" stroke="#E4E0FB" stroke-width="3"/>
<path d="M414 32.5L237.5 79.5" stroke="#E4E0FB" stroke-width="3"/>
<path d="M178.5 517L141.5 651" stroke="#E4E0FB" stroke-width="3"/>
<path d="M93.9795 303.5C93.9795 306.814 91.2932 309.5 87.9795 309.5C84.6658 309.5 81.9795 306.814 81.9795 303.5C81.9795 300.186 84.6658 297.5 87.9795 297.5C91.2932 297.5 93.9795 300.186 93.9795 303.5Z" fill="#FF90ED"/>
<path d="M331.021 303.5C331.021 306.814 328.334 309.5 325.021 309.5C321.707 309.5 319.021 306.814 319.021 303.5C319.021 300.186 321.707 297.5 325.021 297.5C328.334 297.5 331.021 300.186 331.021 303.5Z" fill="#FF90ED"/>
<path d="M370.021 303.5C370.021 306.814 367.334 309.5 364.021 309.5C360.707 309.5 358.021 306.814 358.021 303.5C358.021 300.186 360.707 297.5 364.021 297.5C367.334 297.5 370.021 300.186 370.021 303.5Z" fill="#FF90ED"/>
<path d="M485.021 303.5C485.021 306.814 482.334 309.5 479.021 309.5C475.707 309.5 473.021 306.814 473.021 303.5C473.021 300.186 475.707 297.5 479.021 297.5C482.334 297.5 485.021 300.186 485.021 303.5Z" fill="#FF90ED"/>
<path d="M530.021 303.5C530.021 306.814 527.334 309.5 524.021 309.5C520.707 309.5 518.021 306.814 518.021 303.5C518.021 300.186 520.707 297.5 524.021 297.5C527.334 297.5 530.021 300.186 530.021 303.5Z" fill="#FF90ED"/>
<path d="M606.979 303.5C606.979 306.814 604.293 309.5 600.979 309.5C597.666 309.5 594.979 306.814 594.979 303.5C594.979 300.186 597.666 297.5 600.979 297.5C604.293 297.5 606.979 300.186 606.979 303.5Z" fill="#FF90ED"/>
<path d="M632.979 303.5C632.979 306.814 630.293 309.5 626.979 309.5C623.666 309.5 620.979 306.814 620.979 303.5C620.979 300.186 623.666 297.5 626.979 297.5C630.293 297.5 632.979 300.186 632.979 303.5Z" fill="#FF90ED"/>
<path d="M715.021 303.5C715.021 306.814 712.334 309.5 709.021 309.5C705.707 309.5 703.021 306.814 703.021 303.5C703.021 300.186 705.707 297.5 709.021 297.5C712.334 297.5 715.021 300.186 715.021 303.5Z" fill="#FF90ED"/>
<path d="M750.979 303.5C750.979 306.814 748.293 309.5 744.979 309.5C741.666 309.5 738.979 306.814 738.979 303.5C738.979 300.186 741.666 297.5 744.979 297.5C748.293 297.5 750.979 300.186 750.979 303.5Z" fill="#FF90ED"/>
<path d="M830.979 303.5C830.979 306.814 828.293 309.5 824.979 309.5C821.666 309.5 818.979 306.814 818.979 303.5C818.979 300.186 821.666 297.5 824.979 297.5C828.293 297.5 830.979 300.186 830.979 303.5Z" fill="#FF90ED"/>
<path d="M908.021 303.5C908.021 306.814 905.334 309.5 902.021 309.5C898.707 309.5 896.021 306.814 896.021 303.5C896.021 300.186 898.707 297.5 902.021 297.5C905.334 297.5 908.021 300.186 908.021 303.5Z" fill="#FF90ED"/>
<path d="M936.5 207.02C936.5 210.334 933.814 213.02 930.5 213.02C927.186 213.02 924.5 210.334 924.5 207.02C924.5 203.707 927.186 201.02 930.5 201.02C933.814 201.02 936.5 203.707 936.5 207.02Z" fill="#FF90ED"/>
<path d="M936.5 124C936.5 127.314 933.814 130 930.5 130C927.186 130 924.5 127.314 924.5 124C924.5 120.686 927.186 118 930.5 118C933.814 118 936.5 120.686 936.5 124Z" fill="#2246FF"/>
<circle cx="774" cy="20" r="6" fill="#FF90ED"/>
<circle cx="675" cy="20" r="6" fill="#FF90ED"/>
<circle cx="576" cy="20" r="6" fill="#FF90ED"/>
<circle cx="479" cy="20" r="6" fill="#FF90ED"/>
<circle cx="414" cy="32" r="6" fill="#FF90ED"/>
<path d="M268.979 101.5C268.979 104.814 266.293 107.5 262.979 107.5C259.666 107.5 256.979 104.814 256.979 101.5C256.979 98.1863 259.666 95.5 262.979 95.5C266.293 95.5 268.979 98.1863 268.979 101.5Z" fill="#2246FF"/>
<path d="M243.527 79.2384C243.527 82.5521 240.841 85.2384 237.527 85.2384C234.213 85.2384 231.527 82.5521 231.527 79.2384C231.527 75.9247 234.213 73.2384 237.527 73.2384C240.841 73.2384 243.527 75.9247 243.527 79.2384Z" fill="#FF90ED"/>
<path d="M199.083 348C199.083 351.314 196.397 354 193.083 354C189.769 354 187.083 351.314 187.083 348C187.083 344.686 189.769 342 193.083 342C196.397 342 199.083 344.686 199.083 348Z" fill="#2246FF"/>
<path d="M235.5 331.979C235.5 335.293 232.814 337.979 229.5 337.979C226.186 337.979 223.5 335.293 223.5 331.979C223.5 328.666 226.186 325.979 229.5 325.979C232.814 325.979 235.5 328.666 235.5 331.979Z" fill="#FF90ED"/>
<circle cx="207" cy="413" r="6" fill="#FF90ED"/>
<circle cx="186" cy="489" r="6" fill="#FF90ED"/>
<circle cx="179" cy="516" r="6" fill="#FF90ED"/>
<circle cx="142" cy="649" r="6" fill="#FF90ED"/>
<circle cx="145" cy="476" r="6" fill="#FF0707"/>
</svg>
